HIERARCHY
ROOT Hips
{
	OFFSET	0.000000	0.000000	0.000000
	CHANNELS 6 Xposition Yposition Zposition Zrotation Xrotation Yrotation
	JOINT LeftHip
	{
		OFFSET	11.298960	-8.380145	1.031225
		CHANNELS 3 Zrotation Xrotation Yrotation
		JOINT LeftKnee
		{
			OFFSET	-1.779039	-39.577010	0.417431
			CHANNELS 3 Zrotation Xrotation Yrotation
			JOINT LeftAnkle
			{
				OFFSET	0.890862	-42.943018	-6.321374
				CHANNELS 3 Zrotation Xrotation Yrotation
				JOINT LeftAnkleEnd
				{
					OFFSET	-0.632740	-5.685484	-5.621922
					CHANNELS 3 Zrotation Xrotation Yrotation
					End Site
					{
						OFFSET	0.012764	-1.270000	17.907023
					}
				}
			}
		}
	}
	JOINT RightHip
	{
		OFFSET	-11.298960	-8.380145	1.031225
		CHANNELS 3 Zrotation Xrotation Yrotation
		JOINT RightKnee
		{
			OFFSET	1.779039	-39.577010	0.417431
			CHANNELS 3 Zrotation Xrotation Yrotation
			JOINT RightAnkle
			{
				OFFSET	-0.890862	-42.943018	-6.321374
				CHANNELS 3 Zrotation Xrotation Yrotation
				JOINT RightAnkleEnd
				{
					OFFSET	0.632740	-5.685484	-5.621922
					CHANNELS 3 Zrotation Xrotation Yrotation
					End Site
					{
						OFFSET	-0.012764	-1.270000	17.907023
					}
				}
			}
		}
	}
	JOINT Chest
	{
		OFFSET	0.000013	6.720637	2.223076
		CHANNELS 3 Zrotation Xrotation Yrotation
		JOINT Chest1
		{
			OFFSET	-0.073051	18.182640	-2.749017
			CHANNELS 3 Zrotation Xrotation Yrotation
			JOINT LeftCollar
			{
				OFFSET	7.790763	29.076902	-2.820492
				CHANNELS 3 Zrotation Xrotation Yrotation
				JOINT LeftShoulder
				{
					OFFSET	13.187018	-7.309688	1.779387
					CHANNELS 3 Zrotation Xrotation Yrotation
					JOINT LeftElbow
					{
						OFFSET	3.671976	-29.168340	5.964022
						CHANNELS 3 Zrotation Xrotation Yrotation
						JOINT LeftWrist
						{
							OFFSET	0.572018	-25.624790	10.228225
							CHANNELS 3 Zrotation Xrotation Yrotation
							End Site
							{
								OFFSET	-1.779270	-8.879179	2.542515
							}
						}
					}
				}
			}
			JOINT RightCollar
			{
				OFFSET	-7.644689	29.076902	-2.820492
				CHANNELS 3 Zrotation Xrotation Yrotation
				JOINT RightShoulder
				{
					OFFSET	-13.187018	-7.309688	1.779387
					CHANNELS 3 Zrotation Xrotation Yrotation
					JOINT RightElbow
					{
						OFFSET	-3.671976	-29.168340	5.964022
						CHANNELS 3 Zrotation Xrotation Yrotation
						JOINT RightWrist
						{
							OFFSET	-0.572018	-25.624790	10.228225
							CHANNELS 3 Zrotation Xrotation Yrotation
							End Site
							{
								OFFSET	1.779270	-8.879179	2.542515
							}
						}
					}
				}
			}
			JOINT Neck
			{
				OFFSET	-0.441376	29.919930	-1.795122
				CHANNELS 3 Zrotation Xrotation Yrotation
				JOINT Head
				{
					OFFSET	-0.451988	10.184461	3.285312
					CHANNELS 3 Zrotation Xrotation Yrotation
					End Site
					{
						OFFSET	-0.448112	13.050622	-3.935146
					}
				}
			}
		}
	}
}
MOTION
Frames:     6
Frame Time: 0.008333
0.000000	99.141079	0.000000	0.072114	-0.447896	-3.040570	-0.398450	0.168232	0.654589	-0.033487	0.313399	0.999288	0.348235	-0.046506	1.388030	0.	0.	0.	0.001204	-0.320946	2.081990	-0.107257	0.719500	0.789884	0.245850	0.047213	0.246312	0.	0.	0.	-0.146511	-0.957000	0.397267	-1.445840	0.645491	-0.687752	0.657711	-0.212477	1.884020	-0.438382	-0.879823	-2.270150	0.045515	0.914484	0.274830	0.308169	-1.562660	0.303913	1.382570	-0.273757	1.704980	1.153280	-2.148409	2.882239	-1.365230	4.076409	2.580678	0.705824	2.143050	-1.197031	0.842945	-0.082240	2.114540	-0.062065	-1.251200	-0.678949	
0.000000	99.141079	0.000000	0.072114	-0.447896	-3.040570	-0.398450	0.168232	0.654589	-0.033487	0.313399	0.999288	0.348235	-0.046506	1.388030	0.	0.	0.	0.001204	-0.320946	2.081990	-0.107257	0.719500	0.789884	0.245850	0.047213	0.246312	0.	0.	0.	-0.147113	-0.957000	0.399168	-1.434290	0.639932	-0.703055	0.647864	-0.207786	1.894800	-0.438382	-0.879823	-2.270149	0.045515	0.914484	0.274830	0.308169	-1.562660	0.303913	1.372700	-0.268236	1.715400	1.153280	-2.148410	2.882240	-1.370680	4.074880	2.597050	0.709693	2.143051	-1.197029	0.829030	-0.082239	2.130740	-0.066765	-1.247040	-0.673658	
0.000000	99.141079	0.000000	0.072114	-0.447896	-3.040570	-0.398450	0.168232	0.654589	-0.033487	0.313399	0.999288	0.348235	-0.046506	1.388030	0.	0.	0.	0.001204	-0.320946	2.081990	-0.107257	0.719500	0.789884	0.245850	0.047213	0.246312	0.	0.	0.	-0.149600	-0.956999	0.406652	-1.423830	0.632188	-0.717697	0.641889	-0.201384	1.903700	-0.438382	-0.879823	-2.270150	0.045515	0.914484	0.274830	0.308169	-1.562660	0.303913	1.364450	-0.260775	1.724720	1.153280	-2.148410	2.882239	-1.379770	4.074220	2.612410	0.712344	2.143049	-1.197031	0.818251	-0.082238	2.143580	-0.070416	-1.239530	-0.670046	
0.000725	99.140943	-0.003050	0.072027	-0.447891	-3.051680	-0.398443	0.164872	0.665572	-0.033562	0.317713	0.999289	0.348235	-0.046506	1.388030	0.	0.	0.	0.001484	-0.328647	2.081990	-0.107456	0.727326	0.797067	0.245850	0.047213	0.246312	0.	0.	0.	-0.152174	-0.956998	0.416000	-1.414330	0.624715	-0.731586	0.637972	-0.196281	1.911660	-0.443506	-0.874030	-2.270149	0.045368	0.918232	0.282864	0.307872	-1.545100	0.296333	1.356590	-0.254784	1.733640	1.153280	-2.148410	2.882240	-1.390760	4.074700	2.627569	0.716925	2.143051	-1.197032	0.808712	-0.082238	2.155410	-0.074030	-1.232440	-0.666401	
0.001430	99.140778	-0.007210	0.071943	-0.447886	-3.062490	-0.398451	0.162927	0.676322	-0.033590	0.319289	0.999289	0.348235	-0.046506	1.388030	0.	0.	0.	0.001812	-0.337679	2.081990	-0.107689	0.736434	0.805348	0.245850	0.047213	0.246312	0.	0.	0.	-0.155120	-0.956997	0.427703	-1.405620	0.617148	-0.745033	0.636162	-0.192106	1.918630	-0.448847	-0.866854	-2.270139	0.045282	0.920229	0.287611	0.307680	-1.532411	0.291632	1.349060	-0.250081	1.742200	1.153281	-2.148410	2.882240	-1.403370	4.076340	2.642379	0.722928	2.143050	-1.197031	0.800526	-0.082237	2.166080	-0.077466	-1.225640	-0.662827	
0.001682	99.140594	-0.012023	0.071853	-0.447882	-3.073930	-0.398465	0.161402	0.687719	-0.033602	0.319972	0.999289	0.348235	-0.046506	1.388030	0.	0.	0.	0.002224	-0.347230	2.092630	-0.107930	0.746053	0.813487	0.245850	0.047213	0.246312	0.	0.	0.	-0.158752	-0.956995	0.442201	-1.397430	0.609066	-0.758462	0.636382	-0.188386	1.924631	-0.454877	-0.858753	-2.270140	0.045257	0.922098	0.288576	0.315204	-1.521479	0.287778	1.341740	-0.246416	1.750440	1.157430	-2.136529	2.871610	-1.417110	4.079140	2.656699	0.729575	2.126970	-1.203631	0.793734	-0.082236	2.175510	-0.080561	-1.218990	-0.659435	
